<?xml version="1.0" standalone="no"?>
<!DOCTYPE svg PUBLIC "-//W3C//DTD SVG 20010904//EN"
 "http://www.w3.org/TR/2001/REC-SVG-20010904/DTD/svg10.dtd">
<svg version="1.0" xmlns="http://www.w3.org/2000/svg"
 width="512.000000pt" height="512.000000pt" viewBox="0 0 512.000000 512.000000"
 preserveAspectRatio="xMidYMid meet">

<g transform="translate(0.000000,512.000000) scale(0.100000,-0.100000)"
fill="#000000" stroke="none">
<path d="M2012 5100 c-109 -29 -187 -74 -272 -160 -134 -133 -180 -258 -180
-486 l0 -133 -533 -3 -533 -3 -41 -27 c-62 -41 -88 -90 -88 -168 0 -78 26
-127 88 -168 38 -25 49 -27 174 -30 l133 -4 0 -1498 c0 -1611 -1 -1578 51
-1733 67 -200 212 -394 378 -506 92 -63 233 -127 337 -153 l89 -23 940 0 c880
0 945 1 1020 19 371 85 663 372 757 742 l23 89 0 1266 0 1265 -27 41 c-41 62
-90 88 -168 88 -78 0 -127 -26 -168 -88 l-27 -41 -5 -1250 c-5 -1180 -6 -1254
-24 -1306 -32 -99 -79 -173 -156 -250 -86 -87 -162 -131 -276 -160 -74 -19
-114 -20 -944 -20 -830 0 -870 1 -944 20 -113 29 -190 73 -276 160 -87 86
-131 163 -160 276 -19 75 -20 116 -20 1570 l0 1494 1733 2 1733 3 41 27 c63
41 88 90 88 169 0 54 -5 72 -27 106 -15 22 -44 51 -65 64 l-38 24 -532 3 -533
3 0 133 c0 228 -46 353 -180 486 -86 87 -163 131 -276 160 -72 19 -111 20
-548 19 -431 0 -477 -2 -544 -19z m1051 -409 c21 -13 50 -42 65 -64 25 -38 27
-49 30 -174 l4 -133 -601 0 -601 0 0 113 c0 61 5 129 11 150 13 47 76 113 121
126 20 6 216 9 483 8 l450 -2 38 -24z"/>
<path d="M1692 3109 c-46 -14 -109 -80 -122 -128 -7 -27 -10 -353 -8 -1043 l3
-1003 24 -38 c13 -21 42 -50 64 -65 34 -23 52 -27 107 -27 55 0 73 4 107 27
22 15 51 44 64 65 l24 38 0 1025 0 1025 -24 38 c-47 76 -151 113 -239 86z"/>
<path d="M2492 3109 c-46 -14 -109 -80 -122 -128 -7 -27 -10 -353 -8 -1043 l3
-1003 24 -38 c13 -21 42 -50 64 -65 34 -23 52 -27 107 -27 55 0 73 4 107 27
22 15 51 44 64 65 l24 38 0 1025 0 1025 -24 38 c-47 76 -151 113 -239 86z"/>
<path d="M3292 3109 c-46 -14 -109 -80 -122 -128 -7 -27 -10 -353 -8 -1043 l3
-1003 24 -38 c13 -21 42 -50 64 -65 34 -23 52 -27 107 -27 55 0 73 4 107 27
22 15 51 44 64 65 l24 38 0 1025 0 1025 -24 38 c-47 76 -151 113 -239 86z"/>
</g>
</svg>
