<?xml version="1.0" standalone="no"?>
<!DOCTYPE svg PUBLIC "-//W3C//DTD SVG 20010904//EN"
 "http://www.w3.org/TR/2001/REC-SVG-20010904/DTD/svg10.dtd">
<svg version="1.0" xmlns="http://www.w3.org/2000/svg"
 width="503.000000pt" height="503.000000pt" viewBox="0 0 503.000000 503.000000"
 preserveAspectRatio="xMidYMid meet">

<g transform="translate(0.000000,503.000000) scale(0.100000,-0.100000)"
fill="#000000" stroke="none">
<path d="M2709 3446 c-49 -17 -73 -35 -158 -118 -77 -75 -79 -68 -4 14 24 26
43 52 43 57 0 48 -268 38 -356 -14 -50 -30 -72 -63 -109 -170 -16 -44 -32 -84
-38 -90 -10 -11 -1 77 14 139 6 21 8 40 5 43 -11 11 -26 -10 -26 -35 -1 -37
-34 -107 -81 -170 -23 -29 -42 -52 -44 -50 -1 2 3 40 9 85 14 95 11 144 -10
136 -7 -2 -28 -28 -46 -56 -28 -44 -33 -48 -36 -29 -5 32 -45 29 -120 -9 -103
-51 -149 -126 -178 -284 -7 -41 -33 -110 -38 -104 -2 2 1 34 7 71 8 52 7 74
-2 95 -12 27 -13 27 -27 8 -8 -10 -14 -27 -14 -37 0 -21 -39 -139 -50 -151 -4
-5 -13 8 -20 30 -28 87 -62 108 -79 47 -5 -19 -21 -50 -34 -67 -75 -99 -102
-214 -94 -402 l5 -130 -25 50 c-14 28 -32 58 -41 68 -16 18 -38 24 -27 8 7
-12 55 -257 55 -279 0 -10 -10 -1 -24 21 -26 42 -66 87 -77 87 -9 0 3 -46 24
-86 20 -40 47 -175 47 -239 0 -42 -6 -60 -29 -92 -34 -47 -74 -123 -68 -129 2
-2 25 27 50 65 25 38 62 81 81 96 38 29 120 55 174 55 23 0 32 4 29 13 -2 8
-25 12 -65 12 -34 0 -62 3 -62 7 0 13 84 30 124 25 21 -3 52 -15 68 -27 16
-12 31 -20 32 -18 1 1 11 22 21 46 21 49 86 111 143 137 53 25 66 44 45 67 -9
10 -26 18 -37 19 -12 0 -16 3 -10 5 6 3 45 -2 85 -11 41 -8 83 -15 94 -15 19
0 19 1 -2 22 -14 13 -56 30 -110 44 -76 19 -84 23 -60 29 16 4 63 5 105 2 62
-5 72 -4 52 5 -14 6 -65 11 -114 11 -72 -1 -86 1 -70 11 28 16 171 12 227 -7
57 -20 100 -22 95 -4 -6 17 -80 43 -173 60 l-80 15 69 1 c72 1 179 -25 247
-60 20 -10 39 -16 41 -13 9 9 113 32 173 38 108 12 277 -13 434 -64 35 -11 66
-18 69 -16 7 7 -34 60 -76 98 -21 19 -75 57 -120 84 -45 26 -79 50 -77 52 2 2
29 -8 61 -22 58 -27 158 -102 249 -187 49 -46 52 -48 115 -49 36 -1 68 -1 72
-1 4 1 -6 23 -23 51 -36 59 -96 114 -201 183 -42 28 -75 53 -73 55 2 2 38 -12
79 -33 82 -41 166 -114 211 -185 65 -101 72 -103 182 -66 103 35 199 47 310
40 93 -7 95 -7 85 13 -14 25 -81 87 -152 140 -50 37 -92 62 -255 154 -90 51
-36 30 96 -37 72 -36 186 -103 253 -149 163 -110 158 -84 -18 89 l-131 129 60
-33 c54 -30 204 -147 205 -160 1 -3 15 -22 33 -42 l32 -38 65 20 c78 24 210
49 265 51 86 2 124 10 118 25 -7 19 -156 107 -312 183 -195 96 -179 95 89 -7
96 -36 215 -86 265 -110 49 -24 104 -46 122 -49 32 -6 233 35 233 47 0 10
-311 168 -376 191 -87 31 -226 69 -251 69 -12 0 -25 5 -29 12 -10 16 231 3
313 -17 95 -23 187 -68 243 -121 27 -25 50 -40 50 -33 0 20 -92 161 -159 243
-73 90 -164 174 -271 254 -89 66 -115 74 -158 43 -29 -20 -139 -64 -187 -76
-22 -5 -9 7 45 42 41 27 82 58 90 68 18 22 26 25 -106 -33 -91 -40 -232 -87
-240 -79 -5 5 94 50 185 84 41 16 76 33 78 39 2 6 -41 25 -94 43 -54 19 -110
40 -125 47 -45 23 -159 62 -227 78 -74 17 -81 21 -46 30 24 6 34 29 16 40 -4
3 -86 21 -181 41 -184 37 -297 44 -361 21z m275 -224 c-49 -43 -216 -163 -221
-159 -6 7 96 90 172 140 80 53 93 58 49 19z m61 -328 c122 -15 205 -31 214
-40 7 -7 -42 -3 -224 21 -127 16 -437 22 -590 10 -88 -6 -209 -27 -270 -45
-312 -95 -459 -172 -600 -314 -106 -107 -169 -203 -206 -313 -36 -108 -57
-117 -28 -11 32 115 99 218 219 338 166 165 325 247 630 326 88 22 200 39 325
48 90 6 418 -6 530 -20z"/>
</g>
</svg>
