<svg width="26" height="30" viewBox="0 0 26 30" fill="none" xmlns="http://www.w3.org/2000/svg">
<path d="M9.65039 0.112854C9.01172 0.282776 8.55469 0.546448 8.05664 1.05035C7.27148 1.82965 7.00195 2.56207 7.00195 3.89801V4.67731L3.87891 4.69489L0.755859 4.71246L0.515625 4.87067C0.152344 5.1109 0 5.39801 0 5.85504C0 6.31207 0.152344 6.59918 0.515625 6.83942C0.738281 6.9859 0.802734 6.99762 1.53516 7.0152L2.31445 7.03864V15.816C2.31445 25.2554 2.30859 25.0621 2.61328 25.9703C3.00586 27.1422 3.85547 28.2789 4.82812 28.9351C5.36719 29.3043 6.19336 29.6793 6.80273 29.8316L7.32422 29.9664H12.832C17.9883 29.9664 18.3691 29.9605 18.8086 29.855C20.9824 29.357 22.6934 27.6754 23.2441 25.5074L23.3789 24.9859V17.5679V10.1558L23.2207 9.91559C22.9805 9.55231 22.6934 9.39996 22.2363 9.39996C21.7793 9.39996 21.4922 9.55231 21.252 9.91559L21.0938 10.1558L21.0645 17.48C21.0352 24.3941 21.0293 24.8277 20.9238 25.1324C20.7363 25.7125 20.4609 26.1461 20.0098 26.5972C19.5059 27.107 19.0605 27.3648 18.3926 27.5347C17.959 27.6461 17.7246 27.6519 12.8613 27.6519C7.99805 27.6519 7.76367 27.6461 7.33008 27.5347C6.66797 27.3648 6.2168 27.107 5.71289 26.5972C5.20312 26.0933 4.94531 25.6422 4.77539 24.98C4.66406 24.5406 4.6582 24.3004 4.6582 15.7808V7.02692L14.8125 7.0152L24.9668 6.99762L25.207 6.83942C25.5762 6.59918 25.7227 6.31207 25.7227 5.84918C25.7227 5.53278 25.6934 5.42731 25.5645 5.22809C25.4766 5.09918 25.3066 4.92926 25.1836 4.85309L24.9609 4.71246L21.8438 4.69489L18.7207 4.67731V3.89801C18.7207 2.56207 18.4512 1.82965 17.666 1.05035C17.1621 0.540588 16.7109 0.282776 16.0488 0.112854C15.627 0.00152588 15.3984 -0.0043335 12.8379 0.00152588C10.3125 0.00152588 10.043 0.0132446 9.65039 0.112854ZM15.8086 2.50934C15.9316 2.58551 16.1016 2.75543 16.1895 2.88434C16.3359 3.10699 16.3477 3.17145 16.3652 3.90387L16.3887 4.68317H12.8672H9.3457V4.02106C9.3457 3.66364 9.375 3.2652 9.41016 3.14215C9.48633 2.86676 9.85547 2.48004 10.1191 2.40387C10.2363 2.36871 11.3848 2.35114 12.9492 2.35699L15.5859 2.36871L15.8086 2.50934Z" fill="#D64C4C"/>
<path d="M7.77554 11.7789C7.50601 11.8609 7.13686 12.2476 7.06069 12.5289C7.01968 12.6871 7.0021 14.5972 7.01382 18.6402L7.0314 24.5172L7.17202 24.7398C7.24819 24.8629 7.41811 25.0328 7.54702 25.1207C7.74624 25.2554 7.85171 25.2789 8.17397 25.2789C8.49624 25.2789 8.60171 25.2554 8.80093 25.1207C8.92983 25.0328 9.09976 24.8629 9.17593 24.7398L9.31655 24.5172V18.5113V12.5054L9.17593 12.2828C8.90054 11.8375 8.29116 11.6207 7.77554 11.7789Z" fill="#D64C4C"/>
<path d="M12.463 11.7789C12.1935 11.8609 11.8244 12.2476 11.7482 12.5289C11.7072 12.6871 11.6896 14.5972 11.7013 18.6402L11.7189 24.5172L11.8595 24.7398C11.9357 24.8629 12.1056 25.0328 12.2345 25.1207C12.4337 25.2554 12.5392 25.2789 12.8615 25.2789C13.1837 25.2789 13.2892 25.2554 13.4884 25.1207C13.6173 25.0328 13.7873 24.8629 13.8634 24.7398L14.0041 24.5172V18.5113V12.5054L13.8634 12.2828C13.588 11.8375 12.9787 11.6207 12.463 11.7789Z" fill="#D64C4C"/>
<path d="M17.1505 11.7789C16.881 11.8609 16.5119 12.2476 16.4357 12.5289C16.3947 12.6871 16.3771 14.5972 16.3888 18.6402L16.4064 24.5172L16.547 24.7398C16.6232 24.8629 16.7931 25.0328 16.922 25.1207C17.1212 25.2554 17.2267 25.2789 17.549 25.2789C17.8712 25.2789 17.9767 25.2554 18.1759 25.1207C18.3048 25.0328 18.4748 24.8629 18.5509 24.7398L18.6916 24.5172V18.5113V12.5054L18.5509 12.2828C18.2755 11.8375 17.6662 11.6207 17.1505 11.7789Z" fill="#D64C4C"/>
</svg>
