<svg width="30" height="30" viewBox="0 0 30 30" fill="none" xmlns="http://www.w3.org/2000/svg">
<path d="M25.0488 0.09375C24.8262 0.140625 24.3867 0.298828 24.082 0.445312L23.5254 0.714844L16.1074 8.13867L8.68359 15.5566L7.56445 18.9258C6.92578 20.8594 6.44531 22.3887 6.44531 22.5117C6.44531 23.0918 6.9082 23.5547 7.48242 23.5547C7.61719 23.5547 9.08203 23.0977 11.0742 22.4355L14.4434 21.3164L21.8613 13.8926L29.2852 6.47461L29.5547 5.91797C30.1465 4.6875 30.1465 3.50977 29.5488 2.28516C29.3262 1.82227 29.1973 1.64648 28.7754 1.22461C28.3535 0.796875 28.1836 0.673828 27.7148 0.451172C26.8184 0.0234375 25.9629 -0.09375 25.0488 0.09375ZM26.7187 2.34961C27.1055 2.53711 27.4395 2.85352 27.6445 3.25195C27.7793 3.50977 27.8027 3.61523 27.8027 4.10156C27.8027 4.57617 27.7793 4.70508 27.6621 4.95117C27.5449 5.18555 26.0566 6.70312 20.4375 12.334L13.3594 19.4238L11.2969 20.1094C10.166 20.4902 9.22852 20.7891 9.2168 20.7832C9.21094 20.7715 9.50977 19.8398 9.87891 18.7148L10.5586 16.6699L17.4844 9.73828C21.2871 5.92383 24.5039 2.72461 24.627 2.625C24.75 2.52539 25.002 2.37891 25.1836 2.30273C25.6406 2.11523 26.2559 2.13281 26.7187 2.34961Z" fill="#3FB970"/>
<path d="M2.37896 2.25586C1.55278 2.48438 0.785205 3.09961 0.398486 3.84375C-0.0292483 4.6582 -0.00581078 3.7793 0.0117674 16.2422L0.0293455 27.4512L0.181689 27.8437C0.26372 28.0605 0.421924 28.3652 0.521533 28.5293C0.966846 29.2207 1.84575 29.8066 2.63677 29.9414C2.9063 29.9883 5.96489 30 13.0958 29.9883L23.1739 29.9707L23.5782 29.8125C24.6446 29.3965 25.4122 28.5117 25.6348 27.4336C25.711 27.0703 25.7227 26.209 25.711 21.3633L25.6934 15.7266L25.5528 15.5156C25.2598 15.0937 24.75 14.9062 24.2989 15.0527C24.0352 15.1406 23.7012 15.5098 23.6192 15.8027C23.5782 15.9492 23.5547 17.8242 23.5547 21.5156C23.5547 25.248 23.5372 27.0586 23.4903 27.1699C23.4141 27.3691 23.168 27.6387 22.9571 27.75C22.8223 27.8203 21.2989 27.832 12.8555 27.832H2.91216L2.67192 27.6914C2.53716 27.6152 2.3731 27.4453 2.29692 27.3164L2.16802 27.082L2.17974 16.0137L2.19731 4.93945L2.36724 4.72266C2.46099 4.59961 2.64263 4.44727 2.77739 4.38867C3.00591 4.2832 3.29888 4.27734 9.65044 4.27734C14.1915 4.27734 16.336 4.25977 16.4473 4.21289C16.8399 4.06641 17.1153 3.66211 17.1211 3.22852C17.1211 2.83594 16.9395 2.50195 16.6231 2.31445L16.3653 2.16797L9.51567 2.17383C3.94927 2.17969 2.61333 2.19141 2.37896 2.25586Z" fill="#3FB970"/>
</svg>
